<?xml version="1.0" encoding="UTF-8"?>
<svg id="Layer_1" data-name="Layer 1" xmlns="http://www.w3.org/2000/svg" viewBox="0 0 2500 2500">
  <defs>
    <style>
      .cls-1 {
        opacity: .18;
      }

      .cls-2 {
        fill: #bfdb38;
      }

      .cls-3 {
        opacity: .06;
      }

      .cls-4 {
        opacity: .2;
      }

      .cls-5 {
        opacity: .29;
      }

      .cls-6 {
        fill: #e1eeff;
      }

      .cls-7 {
        opacity: .35;
      }

      .cls-8 {
        opacity: .07;
      }

      .cls-9 {
        opacity: .11;
      }

      .cls-10 {
        fill: #fecda6;
      }

      .cls-11 {
        fill: #a773c3;
      }

      .cls-12 {
        opacity: .26;
      }

      .cls-13 {
        opacity: .16;
      }

      .cls-14 {
        fill: #383838;
      }
    </style>
  </defs>
  <g>
    <g>
      <path class="cls-11" d="M1372.25,1086.66s9.71,22.03-13.55,28.15c0,0,2.5,24.85-20.38,19.08,0,0,.39,22.63-23.46,17.99-16.58-3.23-96.38,4.54-144.87-17.99-48.57,22.52-129.42,13.82-146.09,17.06-23.85,4.64-23.46-17.99-23.46-17.99-22.88,5.77-20.38-19.08-20.38-19.08-23.27-6.12-13.55-28.15-13.55-28.15-19.95-12.78-5.08-35.27-5.08-35.27-11.65-18.16,9.03-29.6,9.03-29.6-10.53-22.72,13.42-30.12,13.42-30.12-8.94-25.41,20.45-29.97,20.45-29.97-3.14-30.38,20.86-32.46,26.99-32.47-7.6-8.35-20.77-24.72-24.25-41.58-.14-.67-.27-1.34-.37-2-1.53-9.44,.16-18.92,7.7-27.13,0,0-20.65-31.32,9.17-43.23,0,0-13.63-36.61,12.66-39.93,0,0,2.11-36.61,34.51-30.66,0,0,13.38-31.53,38.74-19.62,0,0,22.68-23.39,41.34-4.97,6.4-6.14,13.77-7.03,20.32-5.82,9.95,1.82,18.01,8.36,18.01,8.36,.74-.93,1.51-1.76,2.31-2.54,18.65-18.42,41.34,4.97,41.34,4.97,25.36-11.91,38.74,19.62,38.74,19.62,32.4-5.95,34.51,30.66,34.51,30.66,26.29,3.32,12.66,39.93,12.66,39.93,29.82,11.91,9.17,43.23,9.17,43.23,6.24,8.66,8.18,17.88,7.58,26.82-.06,.83-.14,1.65-.23,2.47-2.21,18.4-14.56,35.26-21.11,43.06,9.23,1.85,22.72,8.51,20.32,31.77,0,0,29.39,4.56,20.45,29.97,0,0,23.94,7.4,13.42,30.12,0,0,20.69,11.44,9.04,29.6,0,0,14.87,22.5-5.08,35.27Z"/>
      <ellipse class="cls-2" cx="1206.53" cy="1823.2" rx="856.18" ry="378.24"/>
      <g class="cls-4">
        <path class="cls-14" d="M2062.71,1823.2c0,208.89-383.3,378.24-856.18,378.24-388.69,0-716.81-114.42-821.34-271.15,135.14,130.37,433.05,220.89,778.79,220.89,472.87,0,856.18-169.35,856.18-378.24,0-37.18-12.13-73.08-34.74-106.98,49.64,47.85,77.28,101.14,77.28,157.25Z"/>
      </g>
      <path class="cls-11" d="M1476.53,1873.49c-155.36,19.97-216.7,10.95-278.42,12.92l.09-.05c-24.29-59.31,0-99.3,0-99.3,37.76-3.99,112.67-28.3,119.73-30.62-4.13,.74-31.26,5.57-60.72-3.11,0,0-65.99-4.98-114.71-8.92-.09,.25-.14,.35-.14,.35-13.52,5.08-54.6-5.82-54.6-5.82,4.84,12.72,.52,19.47,.05,20.16-4.27,4.39-8.68,9.52-13.61,14.84-1.14,1.23-2.33,2.47-3.51,3.75-2.99,3.11-6.17,6.26-9.63,9.37-26.47,23.67-40.23,12.62-72.68,6.31-32.4-6.31-35.44,28.4-51.04,45.01-15.61,16.57-24.62,41.76-24.62,41.76,0,0-34.44-1.63-82.64,1.92-48.2,3.55-108.73-26.38-126.28-68.98-23.62-57.29-16.98-140.37,115.13-172.66,63.85-15.58,110.77-32.93,142.22-46.74,204.32,102.4,385.97,27.9,422.64,10.84,24.48,8.13,54.16,18.84,79.21,23.92,81.45,16.47,168.74,59.07,185.15,103.98,23.15,63.31,3.08,118.53-171.63,141.06Z"/>
      <path class="cls-10" d="M1318.21,1756.33c-4.95,1.66-81.63,26.7-119.99,30.72,0,0-6.89-.8-32.71,1.6-25.82,2.36-16.2-29.21-41.42-41.06-14.94-7-25.03-.15-36.28,11.51,.47-.68,4.79-7.46-.05-20.16,0,0,41.12,10.89,54.64,5.83,0,0,10.37-31.7,43.22-30.5,32.88,1.2,39.65,29.58,71.61,39.06,30.24,8.93,58.05,3.59,60.99,3.01Z"/>
      <g class="cls-13">
        <path class="cls-14" d="M1318.21,1756.33c-4.95,1.66-81.63,26.7-119.99,30.72,0,0-6.89-.8-32.71,1.6-25.82,2.36-16.2-29.21-41.42-41.06-14.94-7-25.03-.15-36.28,11.51,.47-.68,4.79-7.46-.05-20.16,0,0,41.12,10.89,54.64,5.83,0,0,10.37-31.7,43.22-30.5,32.88,1.2,39.65,29.58,71.61,39.06,30.24,8.93,58.05,3.59,60.99,3.01Z"/>
      </g>
      <path class="cls-10" d="M1198.22,1886.35l-.12,.03c-7.71,.21-15.39,.64-23.28,1.29-71.17,5.92-132.39-1.99-166.62,0-34.23,1.96-44.43,5.92-69.65,13.81-25.22,7.89-25.82-21.33-25.82-21.33,0,0,9.01-25.22,24.63-41.79,15.6-16.57,18.61-51.31,51.02-44.99,32.43,6.32,46.23,17.37,72.66-6.32,26.41-23.66,37.83-51.28,63.04-39.46,25.22,11.84,15.6,43.42,41.42,41.06,25.82-2.39,32.71-1.6,32.71-1.6,0,0-24.31,40.02,0,99.3Z"/>
      <g class="cls-4">
        <path class="cls-14" d="M1484.75,1715.43c-25.45,5.8-131.02,29.97-166.53,40.9-2.95,.56-30.74,5.9-61-3.03-2.99-.87-5.77-1.95-8.37-3.13-1.73-.77-3.38-1.59-4.94-2.51-8.71-4.88-15.39-11.14-22.11-16.94-9.8-8.47-19.73-15.86-36.2-16.47-18.77-.67-30.22,9.39-36.51,18.17-1.21,1.64-2.21,3.23-3.08,4.72-.48,.77-.87,1.44-1.17,2.1-.3,.62-.61,1.23-.91,1.8-.3,.67-.56,1.23-.78,1.74-.17,.41-.3,.72-.39,.98-.09,.21-.13,.31-.17,.46-.13,.36-.22,.56-.22,.56-.65,.21-1.3,.41-2.08,.62-.69,.15-1.43,.26-2.25,.41-.48,.05-1,.1-1.52,.15-.87,.05-1.78,.1-2.73,.1-.48,.05-1,.05-1.52,.05-1.56,0-3.16-.05-4.81-.15-3.04-.21-6.24-.56-9.45-.98-.65-.1-1.26-.15-1.86-.26-.48-.05-.91-.15-1.34-.21-.61-.05-1.17-.15-1.78-.26-3.6-.62-7.11-1.23-10.32-1.9-.82-.15-1.65-.36-2.47-.51-.82-.21-1.6-.36-2.38-.51-1.3-.26-2.51-.56-3.64-.82-.78-.21-1.52-.36-2.17-.51-.61-.15-1.17-.31-1.69-.41-.56-.15-1.04-.26-1.43-.36-.39-.1-.65-.15-.87-.21-.22-.05-.3-.1-.3-.1,0,0-42.49-1.03-109.82-32.95-22.8-10.83-46.74-17.19-70.93-18.32-16.65-.77-35.25,.77-53.63,7.03,2.38-1.23,58.62-37.31,118.36-11.8,25.1,10.67,47.56,17.14,65.29,20.99,27.15,2.58,44.51-5.36,54.41-12.63,12.1-8.89,25.29-15.59,39.04-20.35h0c33.18-11.49,69.08-5.45,98.01,16.48l10.46,7.93s66.46,38.85,121.09,37.31c45.74-1.33,106.26-13.34,124.73-17.19Z"/>
      </g>
      <g class="cls-3">
        <path class="cls-14" d="M1146.01,1737.14c.82-1.49,1.82-3.08,3.08-4.72-1.21,1.64-2.21,3.23-3.08,4.72Z"/>
      </g>
      <path class="cls-10" d="M1430.04,1329.98s43.54,77.98,45.49,117.62c1.95,39.64-81.23,135.16-81.23,135.16l-30.12-196.12s46.37-28.72,65.86-56.66Z"/>
      <path class="cls-10" d="M934.03,1329.98s-43.54,77.98-45.49,117.62c-1.95,39.64,81.23,135.16,81.23,135.16l30.12-196.12s-46.37-28.72-65.86-56.66Z"/>
      <path class="cls-10" d="M1227.82,1117s10.94,9.86,33.11,9.23c0,0-4.78,77.75-87.72,85.62-82.94,7.88-96.44-84.64-96.44-84.64,0,0,24.7-.37,37.7-12.88"/>
      <path class="cls-6" d="M1364.18,1386.64c13.31,89.32,52.75,242.13,60.34,271.41,0,0-191.58,148.04-479.37,0l53.49-256.02,.91-6.88c-64.32-13.68-132.78-112.75-132.78-112.75,14.68-24.88,98.94-142.4,98.94-142.4,47.61-50.84,111.05-12.77,111.05-12.77,8.79,14.68,17.5,26.71,26.08,36.41,10.04,11.03,22.56,22.06,36.91,29.11,68.8,31.56,121.17-66.51,121.17-66.51,0,0,65.85-33.3,111.09,14.97,0,0,84.22,117.52,98.94,142.44,0,0-51.3,74.14-106.78,103.01Z"/>
      <g class="cls-9">
        <path class="cls-14" d="M1043.34,1243.33l-43.18,151.96c-64.48-13.18-133.39-112.88-133.39-112.88,123.46,124.39,174.33-31.94,176.57-39.07Z"/>
      </g>
      <g>
        <path class="cls-10" d="M1306.3,928.92c-6.87,14.17-16.45,21.32-26.11,19.63-.94,9.15-2.71,18.49-5.81,27.6-.24,.63-.47,1.26-.71,1.96-.47,1.3-.94,2.55-1.45,3.77-.2,.43-.35,.82-.55,1.26-.43,.98-.9,2-1.37,2.98-9.62,20.14-26.27,34.39-40.01,43.42-9.89,6.56-18.3,10.37-21.52,11.74-.31,8.25-.27,26.11,4.52,44.6,6.87,26.62,25.05,41.89,32.82,48.41-9.46,6.79-35.89,23.95-73.81,24.74-41.26,.86-70.12-18.14-79.31-24.74,14.37-8.36,23.32-21.71,28.82-35.92,8.95-22.93,8.95-48.06,8.52-57.75-3.89-1.73-11.39-5.34-19.98-11.03-13.74-9.03-30.39-23.32-40.05-43.46-.47-.98-.94-2-1.37-2.98-.2-.43-.35-.82-.51-1.26-.51-1.22-1.02-2.47-1.45-3.77-.27-.71-.47-1.34-.71-1.96-3.1-9.11-4.91-18.45-5.81-27.6-9.66,1.73-19.28-5.42-26.15-19.63-9.66-19.98-10.88-48.29,2.91-56.81,7.73-4.83,14.96-3.85,21.2,2.75,.12-10.05,1.57-20.57,6.4-32.98,8.76-22.5,31.76-52.38,67.73-62.43,10.05-2.79,22.89-4.44,37.77-2.16,14.88-2.28,27.72-.63,37.77,2.16,36,10.05,59.01,39.93,67.77,62.43,4.83,12.41,6.28,22.97,6.4,32.98,6.24-6.6,13.47-7.58,21.2-2.75,13.78,8.52,12.56,36.83,2.87,56.81Z"/>
        <g class="cls-9">
          <path class="cls-14" d="M1208.78,1041.29c-27.48,38.44-69.57,52.69-86.97,57.09,8.95-22.93,8.95-48.06,8.52-57.75,50.29,15.08,78.45,.67,78.45,.67Z"/>
        </g>
        <g class="cls-12">
          <path class="cls-14" d="M1040.93,892.73c12.05,6.92,15.72,23.21,12.62,36-.72-6.13-1.33-12.23-3.15-18.15-3.21,2.47-5.6,5.37-8.4,8.49-.59-4.64,3.29-9.58,7.91-10.05-1.92-5.93-4.73-11.53-8.98-16.29Z"/>
        </g>
        <g class="cls-12">
          <path class="cls-14" d="M1298.81,892.73c-12.05,6.92-15.72,23.21-12.62,36,.72-6.13,1.33-12.23,3.15-18.15,3.21,2.47,5.6,5.37,8.4,8.49,.59-4.64-3.29-9.58-7.91-10.05,1.92-5.93,4.73-11.53,8.98-16.29Z"/>
        </g>
      </g>
      <g>
        <path class="cls-14" d="M1200,872.68s22.72-18.4,49.63,4.19c0,0-12.47-9.03-29.56-4.87-17.1,4.16-21.75,2.79-20.07,.68Z"/>
        <path class="cls-14" d="M1145.78,871.23s-25.95-19.39-54.78,6.78c0,0,13.42-10.54,32.53-6.67,19.11,3.87,24.2,2.15,22.25-.11Z"/>
      </g>
      <g>
        <ellipse class="cls-14" cx="1221.55" cy="919.93" rx="6.87" ry="13.74"/>
        <ellipse class="cls-14" cx="1119.08" cy="921.1" rx="6.87" ry="13.74"/>
      </g>
      <g class="cls-5">
        <path class="cls-14" d="M1142.41,985.72c4.27,2.76,8.77,5.06,13.42,6.88,4.65,1.79,9.48,3.13,14.39,3.5,4.91,.65,9.87-.04,14.59-1.4,4.84-1.21,9.09-3.95,13.41-6.64-3.69,3.44-7.86,6.7-12.84,8.36-4.86,1.81-10.19,2.53-15.38,2.03-5.17-.59-10.24-1.98-14.9-4.19-4.64-2.23-9.02-5-12.71-8.53Z"/>
      </g>
      <g class="cls-7">
        <path class="cls-14" d="M1175.96,902.5l2.49,13.6c.79,4.53,1.76,9.04,2.65,13.55,.92,4.51,1.97,8.98,3.28,13.42l3.66,13.41,.12,.45-.34,.3c-2.3,2.01-4.86,3.6-7.74,4.85-2.86,1.23-5.96,2.1-9.14,2.48-3.17,.37-6.42,.43-9.54-.15-3.14-.44-6.1-1.4-8.93-2.5,2.98,.82,5.96,1.59,9.06,1.81,3.07,.33,6.17,.14,9.16-.32,3-.48,5.87-1.42,8.48-2.68,2.61-1.24,5.11-2.81,7.05-4.59l-.22,.75-3.85-13.38c-1.24-4.49-2.21-9.04-3.04-13.58-.86-4.54-1.4-9.12-1.97-13.68-.54-4.57-.93-9.15-1.17-13.73Z"/>
      </g>
      <g class="cls-9">
        <path class="cls-14" d="M1424.51,1658.05s-191.58,148.04-479.37,0c479.25,7.63,386.07-386.52,380.14-409.87l38.9,138.46c13.31,89.32,52.75,242.13,60.34,271.41Z"/>
      </g>
      <path class="cls-14" d="M1464.12,1421.07l-48.15,297.55c-1.69,10.53-10.72,18.2-21.38,18.2h-446.82c-10.66,0-19.69-7.67-21.38-18.2l-9.16-56.47-38.99-241.08c-2.14-13.13,8.06-25.08,21.38-25.08h543.12c3.96,0,7.67,1.04,10.79,2.92,7.47,4.29,12.09,12.93,10.59,22.16Z"/>
      <g class="cls-1">
        <path class="cls-6" d="M1464.12,1421.07l-48.15,297.55c-1.69,10.53-10.72,18.2-21.38,18.2h-446.82c-10.66,0-19.69-7.67-21.38-18.2l-9.16-56.47-38.99-241.08c-2.14-13.13,8.06-25.08,21.38-25.08h543.12c3.96,0,7.67,1.04,10.79,2.92,7.47,4.29,12.09,12.93,10.59,22.16Z"/>
      </g>
      <circle class="cls-6" cx="1169.1" cy="1461.14" r="25.06"/>
      <g class="cls-5">
        <path class="cls-14" d="M1464.12,1421.07l-48.15,297.55c-1.69,10.53-10.72,18.2-21.38,18.2h-446.82c-10.66,0-19.69-7.67-21.38-18.2l-9.16-56.47c258.5,27.1,484.25-205.15,536.3-263.24,7.47,4.29,12.09,12.93,10.59,22.16Z"/>
      </g>
      <path class="cls-11" d="M1335.45,884.4l-16.87-.95c-30.83-38.49-45.04,29.72-45.81,35.94,3.78-49.26-13.07-46.64-13.07-46.64-17.28,6.01-21.7-13-21.7-13-27.61,4.08-23.19-20.57-23.19-20.57-23.79,2.52-25.48-18.43-25.48-18.43-26.54,1.56-28.66-24.46-28.66-24.46-9.38,21.64-27.28,9.61-27.28,9.61-.43,16.51-22.76,15.73-22.76,15.73-.83,17.86-20.01,19.4-20.01,19.4-.43,12.22-1.26,12.22-16.64,22.33-15.38,10.09-3.52,56.54-3.52,56.54-24.47-56.94-41.36-35.68-41.36-35.68l-22.41,.5c-1.53-9.44,.16-18.92,7.7-27.13,0,0-20.65-31.32,9.17-43.23,0,0-13.63-36.61,12.66-39.93,0,0,2.11-36.61,34.51-30.66,0,0,13.38-31.53,38.74-19.62,0,0,22.68-23.39,41.34-4.97,6.4-6.14,13.77-7.03,20.32-5.82,9.95,1.82,18.01,8.36,18.01,8.36,.74-.93,1.51-1.76,2.31-2.54,18.65-18.42,41.34,4.97,41.34,4.97,25.36-11.91,38.74,19.62,38.74,19.62,32.4-5.95,34.51,30.66,34.51,30.66,26.29,3.32,12.66,39.93,12.66,39.93,29.82,11.91,9.17,43.23,9.17,43.23,6.24,8.66,8.18,17.88,7.58,26.82Z"/>
    </g>
    <path class="cls-2" d="M2118.53,678.85c-19.27,32.03-56.36,48.91-72.84,55.11,9.98-15.86,21.85-37.4,31.38-62.46,11.15-2.34,64.46-16.42,88.71-75.66l-7.44-3.04c-19.89,48.59-61.76,64.92-77.96,69.55,14.14-41.11,21-90.37,3.28-139.02l-7.55,2.75c35.27,96.88-31.12,197.09-51.28,224.31-7.69-51.66-18.77-104.99-34.59-156.48,9.85-4.45,27.27-16.61,38.47-49.02,23.33-67.53-44.98-94.41-31.99-47.21,9.38,34.07-2.04,70.36-9.12,87.92-13.65-42.86-30.64-84.29-51.78-122.25l2.14,.94c1.37-3.12,33.26-76.94,5.03-119.35l-6.68,4.46c22.31,33.5,2.02,91.99-4.08,107.67-18.29-31.81-39.53-61.08-64.29-86.49l-5.75,5.61c40.41,41.47,71.42,93.43,95.21,150.18-22.12-.45-99.89-7.51-144.25-81.69l-6.9,4.13c48.42,80.97,134.8,85.63,153.9,85.63,.21,0,.37,0,.57,0,18.92,46.82,33.08,96.68,43.58,146.51-14.1-9.76-46.68-35.54-57.58-71.9-14.06-46.9-57.66,12.16-2.04,56.99,28.65,23.09,50.98,22.62,60.8,20.75,13.58,66.29,20.85,132.3,24.46,190.76,.39,6.37,.74,12.68,1.05,18.97-8.02-2.71-24.42-8.8-44.99-19.39,3.49-3.32,21.5-22.97,11.93-67.26-15.09-69.83-87.44-57.37-51.84-23.76,32.99,31.15,38.57,83.19,39.21,90.66-47.17-24.4-115.43-72.19-152.94-156.29l-7.34,3.27c28.46,63.81,74.15,107.19,115.6,135.59-9.57-.93-59.65-7.21-89.87-39.37-33.52-35.68-46.16,36.63,23.63,51.9,44.36,9.7,64.04-8.36,67.31-11.79,42.08,28.63,79.48,41.77,89.69,45.03,1.26,27.65,1.84,54.42,1.92,79.8-.81,.97-1.29,1.51-1.29,1.51,0,0,.46,.05,1.3,.05,.28,122.34-10.86,212.17-11.01,213.31l7.97,1.01c.14-1.15,11.39-91.87,11.06-215.23,10.94-2.33,29.86-10.42,47.81-37.82,39.15-59.76-20.5-102.55-19.46-53.6,.71,33.35-17.03,64.08-28.42,80.28-.26-30.83-1.25-63.51-3.33-97.24-2.24-36.24-5.87-75.37-11.53-115.67,2.27-2.85,8.2-10.53,15.69-21.97,8.92,4.24,30.51,10.45,64.25-4.94,65-29.65,37.38-97.67,12.15-55.72Z"/>
    <g class="cls-1">
      <path class="cls-14" d="M2118.53,678.85c-19.27,32.03-56.36,48.91-72.84,55.11,9.98-15.86,21.85-37.4,31.38-62.46,11.15-2.34,64.46-16.42,88.71-75.66l-7.44-3.04c-19.89,48.59-61.76,64.92-77.96,69.55,14.14-41.11,21-90.37,3.28-139.02l-7.55,2.75c35.27,96.88-31.12,197.09-51.28,224.31-7.69-51.66-18.77-104.99-34.59-156.48,9.85-4.45,27.27-16.61,38.47-49.02,23.33-67.53-44.98-94.41-31.99-47.21,9.38,34.07-2.04,70.36-9.12,87.92-13.65-42.86-30.64-84.29-51.78-122.25l2.14,.94c1.37-3.12,33.26-76.94,5.03-119.35l-6.68,4.46c22.31,33.5,2.02,91.99-4.08,107.67-18.29-31.81-39.53-61.08-64.29-86.49l-5.75,5.61c40.41,41.47,71.42,93.43,95.21,150.18-22.12-.45-99.89-7.51-144.25-81.69l-6.9,4.13c48.42,80.97,134.8,85.63,153.9,85.63,.21,0,.37,0,.57,0,18.92,46.82,33.08,96.68,43.58,146.51-14.1-9.76-46.68-35.54-57.58-71.9-14.06-46.9-57.66,12.16-2.04,56.99,28.65,23.09,50.98,22.62,60.8,20.75,13.58,66.29,20.85,132.3,24.46,190.76,.39,6.37,.74,12.68,1.05,18.97-8.02-2.71-24.42-8.8-44.99-19.39,3.49-3.32,21.5-22.97,11.93-67.26-15.09-69.83-87.44-57.37-51.84-23.76,32.99,31.15,38.57,83.19,39.21,90.66-47.17-24.4-115.43-72.19-152.94-156.29l-7.34,3.27c28.46,63.81,74.15,107.19,115.6,135.59-9.57-.93-59.65-7.21-89.87-39.37-33.52-35.68-46.16,36.63,23.63,51.9,44.36,9.7,64.04-8.36,67.31-11.79,42.08,28.63,79.48,41.77,89.69,45.03,1.26,27.65,1.84,54.42,1.92,79.8-.81,.97-1.29,1.51-1.29,1.51,0,0,.46,.05,1.3,.05,.28,122.34-10.86,212.17-11.01,213.31l7.97,1.01c.14-1.15,11.39-91.87,11.06-215.23,10.94-2.33,29.86-10.42,47.81-37.82,39.15-59.76-20.5-102.55-19.46-53.6,.71,33.35-17.03,64.08-28.42,80.28-.26-30.83-1.25-63.51-3.33-97.24-2.24-36.24-5.87-75.37-11.53-115.67,2.27-2.85,8.2-10.53,15.69-21.97,8.92,4.24,30.51,10.45,64.25-4.94,65-29.65,37.38-97.67,12.15-55.72Z"/>
    </g>
    <path class="cls-11" d="M2181.48,1310.51c0,9.82-.41,20.71-1.13,32.38-1.94,31.12-5.99,67.59-10.58,102.54-6.12,46.34-13.19,90.02-17.38,115.06-2.48,14.68-11.75,27.33-25.08,34-57.91,28.78-126.45,28.78-184.32-.05-7.12-3.51-13.06-8.74-17.43-15.09-3.87-5.58-6.53-11.98-7.7-18.87-4.14-24.68-11.03-67.5-17.07-113.17-4.59-34.4-8.65-70.43-10.63-101.46-.86-12.79-1.31-24.72-1.35-35.35-.18-91.78,22.07-107.9,67.91-137.71,12.07-7.79,19.86-19.63,24.77-32.65,3.78-10,5.85-20.71,6.89-30.89,12.83-3.2,30.22-6.12,50.89-5.67,16.84,.36,31.34,2.84,42.65,5.67,.36,4.05,1.08,9.37,2.43,15.54,1.13,5.18,2.57,10.36,4.46,15.36,4.91,13.01,12.7,24.86,24.72,32.65,45.89,29.81,68.13,45.93,67.95,137.71Z"/>
    <path class="cls-6" d="M2180.36,1342.89c-1.94,31.12-5.99,67.59-10.58,102.54-99.97,30.85-211.29,14.46-268.98,1.89-4.59-34.4-8.65-70.43-10.63-101.46,55.48,13.06,181.12,34.76,290.19-2.97Z"/>
    <path class="cls-6" d="M1982.8,596.35c3.95-4.82,7.61-9.77,11.2-14.72,3.52-5.01,6.93-10.07,9.89-15.36,2.98-5.28,5.56-10.76,7.68-16.43,1.92-5.73,3.34-11.63,3.95-17.86,.96,6.16,.56,12.6-.95,18.76-1.6,6.14-4.15,11.98-7.19,17.5-6.34,10.88-14.58,20.63-24.59,28.11Z"/>
    <path class="cls-6" d="M2037.44,736.79c6.21-.46,12.32-1.22,18.39-2.03,6.05-.9,12.07-1.92,17.95-3.43,5.88-1.48,11.62-3.39,17.19-5.76,5.47-2.56,10.72-5.6,15.66-9.45-3.8,4.94-8.74,9.09-14.25,12.25-5.55,3.08-11.54,5.25-17.63,6.86-12.25,2.9-25,3.66-37.31,1.57Z"/>
    <path class="cls-6" d="M1985.39,877.67c.88-6.17,1.44-12.3,1.94-18.4,.41-6.11,.7-12.2,.48-18.26-.19-6.06-.83-12.08-1.96-18.03-1.34-5.9-3.18-11.67-5.89-17.32,4.02,4.77,7.02,10.48,8.93,16.53,1.82,6.08,2.67,12.39,2.94,18.69,.22,12.59-1.76,25.2-6.44,36.78Z"/>
    <path class="cls-6" d="M2032.05,986.39c5.01-3.7,9.77-7.61,14.47-11.53,4.64-3.99,9.18-8.06,13.35-12.47,4.18-4.39,8.02-9.07,11.47-14.05,3.26-5.09,6.08-10.46,8.2-16.35-.58,6.21-2.54,12.35-5.51,17.96-3.05,5.56-6.96,10.6-11.25,15.21-8.81,8.99-19.19,16.44-30.72,21.23Z"/>
    <path class="cls-6" d="M2010.94,685.24c-12.45-1.02-24.61-4.91-35.76-10.76-5.51-3.07-10.77-6.66-15.38-11.01-4.55-4.42-8.31-9.67-10.77-15.4,3.83,4.96,8.16,9.2,12.83,13.04,4.81,3.68,9.9,6.95,15.23,9.84,5.32,2.91,10.9,5.39,16.54,7.77,5.68,2.29,11.41,4.54,17.31,6.53Z"/>
    <path class="cls-6" d="M1942.28,859.45c-11.59,4.65-24.21,6.6-36.8,6.35-6.3-.29-12.61-1.15-18.68-2.98-6.05-1.92-11.75-4.94-16.51-8.97,5.64,2.73,11.41,4.58,17.3,5.93,5.95,1.14,11.96,1.79,18.02,2,6.07,.23,12.16-.04,18.27-.44,6.1-.49,12.24-1.03,18.4-1.89Z"/>
    <circle class="cls-11" cx="1859.06" cy="365.14" r="25.72"/>
    <circle class="cls-11" cx="1937.57" cy="329.91" r="25.72"/>
    <circle class="cls-11" cx="2077.95" cy="516.91" r="25.72"/>
    <circle class="cls-11" cx="2166.21" cy="588.96" r="25.72"/>
    <circle class="cls-11" cx="1828.72" cy="722.08" r="25.72"/>
    <circle class="cls-11" cx="1803" cy="443.42" r="25.72"/>
    <g class="cls-8">
      <path class="cls-14" d="M2181.49,1310.49c-.15,70.74-20.53,199.06-29.1,250-2.47,14.68-11.77,27.35-25.09,33.98-57.89,28.78-126.44,28.78-184.33-.02-7.1-3.51-13.04-8.76-17.41-15.09,103.37,.35,194.06-64.93,201.08-175.96,7.19-114.09,20.2-168.58-18.85-202.5-39.08-33.92-39.75-82.92-39.75-82.92l-79.68-8.72c12.85-3.19,30.26-6.11,50.9-5.68,16.87,.35,31.34,2.86,42.66,5.68,.35,4.03,1.08,9.36,2.41,15.52,1.12,5.19,2.58,10.37,4.46,15.37,4.89,13.02,12.68,24.84,24.73,32.67,45.89,29.81,68.12,45.93,67.95,137.66Z"/>
    </g>
  </g>
  <rect class="cls-2" x="308.06" y="298.56" width="580.04" height="484.11" rx="23.25" ry="23.25"/>
  <g class="cls-12">
    <rect class="cls-14" x="345.12" y="334.96" width="505.91" height="411.3"/>
  </g>
  <rect class="cls-6" x="377.05" y="368.71" width="214.93" height="153.64"/>
  <rect class="cls-6" x="377.05" y="554.46" width="214.93" height="158.07"/>
  <rect class="cls-6" x="622.53" y="368.71" width="196.56" height="153.64"/>
  <rect class="cls-6" x="622.53" y="554.46" width="196.56" height="158.07"/>
</svg>