<?xml version="1.0" encoding="UTF-8" standalone="no"?>
<!DOCTYPE svg PUBLIC "-//W3C//DTD SVG 1.1//EN" "http://www.w3.org/Graphics/SVG/1.1/DTD/svg11.dtd">
<svg version="1.1" xmlns="http://www.w3.org/2000/svg" xmlns:xlink="http://www.w3.org/1999/xlink" preserveAspectRatio="xMidYMid meet" viewBox="0 0 691 691" width="691" height="691"><defs><path d="M15.51 83.29L15.54 82.8L15.59 82.32L15.66 81.85L15.74 81.38L15.85 80.92L15.97 80.46L16.11 80.01L16.26 79.57L16.44 79.14L16.63 78.71L16.83 78.3L17.05 77.89L17.29 77.5L17.54 77.11L17.8 76.74L18.08 76.37L18.37 76.02L18.68 75.68L19 75.35L19.33 75.03L19.67 74.72L20.02 74.43L20.39 74.15L20.76 73.89L21.15 73.64L21.54 73.4L21.95 73.18L22.36 72.98L22.79 72.79L23.22 72.61L23.66 72.46L24.11 72.32L24.57 72.2L25.03 72.09L25.5 72.01L25.97 71.94L26.45 71.89L26.94 71.86L27.43 71.85L663.57 71.85L664.06 71.86L664.55 71.89L665.03 71.94L665.5 72.01L665.97 72.09L666.43 72.2L666.89 72.32L667.34 72.46L667.78 72.61L668.21 72.79L668.64 72.98L669.05 73.18L669.46 73.4L669.85 73.64L670.24 73.89L670.61 74.15L670.98 74.43L671.33 74.72L671.67 75.03L672 75.35L672.32 75.68L672.63 76.02L672.92 76.37L673.2 76.74L673.46 77.11L673.71 77.5L673.95 77.89L674.17 78.3L674.37 78.71L674.56 79.14L674.74 79.57L674.89 80.01L675.03 80.46L675.15 80.92L675.26 81.38L675.34 81.85L675.41 82.32L675.46 82.8L675.49 83.29L675.5 83.78L675.5 520.57L15.5 520.57L15.5 83.78L15.5 83.78L15.51 83.29Z" id="br9lcijnH"></path><path d="M31.59 85.51C31.59 87.16 30.25 88.51 28.59 88.51C26.94 88.51 25.59 87.16 25.59 85.51C25.59 83.85 26.94 82.51 28.59 82.51C30.25 82.51 31.59 83.85 31.59 85.51Z" id="aDufI9ugK"></path><path d="M42.76 85.51C42.76 87.16 41.42 88.51 39.76 88.51C38.11 88.51 36.76 87.16 36.76 85.51C36.76 83.85 38.11 82.51 39.76 82.51C41.42 82.51 42.76 83.85 42.76 85.51Z" id="b4lJezdskS"></path><path d="M54.45 85.51C54.45 87.16 53.1 88.51 51.45 88.51C49.79 88.51 48.45 87.16 48.45 85.51C48.45 83.85 49.79 82.51 51.45 82.51C53.1 82.51 54.45 83.85 54.45 85.51Z" id="bUfxw9jnT"></path></defs><g><g><g><use xlink:href="#br9lcijnH" opacity="1" fill="#ffffff" fill-opacity="1"></use><g><use xlink:href="#br9lcijnH" opacity="1" fill-opacity="0" stroke="#22181c" stroke-width="3" stroke-opacity="1"></use></g></g><g><use xlink:href="#aDufI9ugK" opacity="1" fill="#000000" fill-opacity="1"></use></g><g><use xlink:href="#b4lJezdskS" opacity="1" fill="#000000" fill-opacity="1"></use></g><g><use xlink:href="#bUfxw9jnT" opacity="1" fill="#000000" fill-opacity="1"></use></g></g></g></svg>